<?xml version="1.0" encoding="iso-8859-1"?>
<!-- Uploaded to: SVG Repo, www.svgrepo.com, Generator: SVG Repo Mixer Tools -->
<svg version="1.1" id="Layer_1" xmlns="http://www.w3.org/2000/svg" xmlns:xlink="http://www.w3.org/1999/xlink" 
	 viewBox="0 0 509.287 509.287" xml:space="preserve">
<circle style="fill:#FBD303;" cx="254.644" cy="254.644" r="254.644"/>
<rect x="76.97" y="93.584" style="fill:#71D456;" width="94.94" height="335.004"/>
<g>
	<rect x="76.97" y="127.491" style="fill:#FCFCFD;" width="94.94" height="15.258"/>
	<rect x="76.97" y="162.755" style="fill:#FCFCFD;" width="94.94" height="15.258"/>
	<rect x="76.97" y="379.762" style="fill:#FCFCFD;" width="94.94" height="15.258"/>
</g>
<rect x="182.421" y="93.584" style="fill:#6EB1E1;" width="94.94" height="335.004"/>
<g>
	<rect x="182.421" y="127.491" style="fill:#FCFCFD;" width="94.94" height="15.258"/>
	<rect x="182.421" y="162.755" style="fill:#FCFCFD;" width="94.94" height="15.258"/>
	<rect x="182.421" y="379.762" style="fill:#FCFCFD;" width="94.94" height="15.258"/>
</g>
<rect x="325.161" y="87.113" transform="matrix(-0.9699 0.2434 -0.2434 -0.9699 796.0264 410.8646)" style="fill:#F0582F;" width="94.938" height="334.996"/>
<g>
	
		<rect x="294.316" y="124.787" transform="matrix(-0.9699 0.2434 -0.2434 -0.9699 705.5225 177.6575)" style="fill:#FCFCFD;" width="94.938" height="15.258"/>
	
		<rect x="302.827" y="159.049" transform="matrix(-0.9699 0.2434 -0.2434 -0.9699 730.6281 243.0786)" style="fill:#FCFCFD;" width="94.938" height="15.258"/>
	
		<rect x="355.683" y="369.246" transform="matrix(-0.9699 0.2434 -0.2434 -0.9699 885.9127 644.2859)" style="fill:#FCFCFD;" width="94.938" height="15.258"/>
</g>
</svg>