<svg xmlns="http://www.w3.org/2000/svg" viewBox="0 0 500 500"><defs><style>.cls-1{fill:#1d3151;}.cls-2{fill:#fff;}.cls-3{fill:#fff6e6;}.cls-4{fill:#506482;}.cls-5{fill:#516482;}.cls-6{fill:#315d8c;}.cls-7{fill:#4476ac;}.cls-8{fill:#1c4470;}.cls-9{fill:#f3e7cf;}.cls-10{fill:#e06a4f;}.cls-11{fill:#c64f3c;}.cls-12{fill:#f4be71;}.cls-13{fill:#9dba70;}.cls-14{fill:#7e9b4b;}.cls-15{fill:#ddc9a6;}.cls-16{fill:#7e9a4a;}.cls-17{fill:#d89450;}.cls-18{fill:#d99550;}</style></defs><g id="OBJECTS"><path class="cls-1" d="M172.39,372.13l-1.95-17.86a3.7,3.7,0,0,0-3.67-3.29H125.41a3.7,3.7,0,0,0-3.67,3.29l-1.95,17.86a3.68,3.68,0,0,0,3.67,4.09h45.26A3.68,3.68,0,0,0,172.39,372.13Z"/><path class="cls-2" d="M167.21,432.49H125a2.63,2.63,0,0,1-2.62-2.38L116,363.6h60.14l-6.33,66.51A2.63,2.63,0,0,1,167.21,432.49Z"/><path class="cls-3" d="M139.74,430.11l-2.85-58,38.61-1.52.66-7H116l6.33,66.51a2.63,2.63,0,0,0,2.62,2.38h17.39A2.63,2.63,0,0,1,139.74,430.11Z"/><path class="cls-1" d="M172.5,417.46,176,381.7a1.09,1.09,0,0,0-1.08-1.2H117.22a1.09,1.09,0,0,0-1.08,1.2l3.54,35.76a1.08,1.08,0,0,0,1.08,1h50.66A1.08,1.08,0,0,0,172.5,417.46Z"/><path class="cls-1" d="M115.14,363.7l-.43,3.9a1.11,1.11,0,0,0,1.11,1.23h60.54a1.11,1.11,0,0,0,1.11-1.23l-.43-3.9a1.11,1.11,0,0,0-1.1-1h-59.7A1.11,1.11,0,0,0,115.14,363.7Z"/><rect class="cls-4" x="120.82" y="362.34" width="50.54" height="0.75"/><path class="cls-4" d="M137.61,410.83a12.18,12.18,0,1,1,12.18-12.18A12.2,12.2,0,0,1,137.61,410.83Zm0-23.61A11.43,11.43,0,1,0,149,398.65,11.44,11.44,0,0,0,137.61,387.22Z"/><path class="cls-1" d="M337.34,330.63l8.94-20.44a4.28,4.28,0,0,1,6.92-1.34l15.46,15.24Z"/><path class="cls-5" d="M343.86,326.64l4.81-11a2.31,2.31,0,0,1,3.73-.72l8.34,8.22Z"/><path class="cls-4" d="M343.22,327.16l5.11-11.69a2.68,2.68,0,0,1,1.95-1.56,2.73,2.73,0,0,1,2.39.72l8.83,8.71Zm7.58-12.55a1.64,1.64,0,0,0-.38,0,1.9,1.9,0,0,0-1.4,1.12l-4.53,10.36L360,322.89l-7.84-7.72A1.91,1.91,0,0,0,350.8,314.61Z"/><path class="cls-1" d="M393.6,341.85l-.41-22.3a4.27,4.27,0,0,0-5.87-3.89l-20.13,8.14Z"/><path class="cls-5" d="M388.48,335.54l-.22-12a2.31,2.31,0,0,0-3.17-2.1l-10.85,4.39Z"/><path class="cls-4" d="M388.87,336.26l-15.42-10.54,11.5-4.65a2.69,2.69,0,0,1,2.48.25,2.67,2.67,0,0,1,1.2,2.19ZM375,325.89l13.06,8.93-.21-11.3A1.88,1.88,0,0,0,387,322a1.9,1.9,0,0,0-1.79-.18Z"/><path class="cls-1" d="M352.1,386.72l5.56,1.11a33,33,0,0,0,38.83-25.91h0a33,33,0,0,0-25.91-38.82L365,322a33,33,0,0,0-38.82,25.91h0A33,33,0,0,0,352.1,386.72Z"/><polygon class="cls-4" points="332.77 352.32 323.83 346.54 324.24 345.91 333.18 351.7 332.77 352.32"/><rect class="cls-4" x="321.14" y="358.98" width="10.65" height="0.75" transform="translate(-59.23 64.48) rotate(-10.35)"/><rect class="cls-4" x="325.84" y="347.74" width="0.75" height="12.48" transform="translate(-84.74 604.65) rotate(-78.72)"/><rect class="cls-4" x="391.2" y="362.31" width="10.65" height="0.75" transform="translate(-58.7 77.13) rotate(-10.35)"/><polygon class="cls-4" points="398.75 376.13 389.81 370.34 390.22 369.71 399.16 375.5 398.75 376.13"/><rect class="cls-4" x="396.4" y="361.82" width="0.75" height="12.48" transform="translate(-41.78 685.17) rotate(-78.72)"/><path class="cls-1" d="M333.3,375.23l-7,3.75A32.56,32.56,0,0,0,309,407.73v25.44h58.26V381.11Z"/><path class="cls-1" d="M360.72,433.17H374a9.3,9.3,0,0,0-9.3-9.3h-4Z"/><polygon class="cls-4" points="357.65 403.73 352.82 399.96 353.29 399.36 357.65 402.77 361.89 399.37 362.36 399.95 357.65 403.73"/><rect class="cls-4" x="357.27" y="403.25" width="0.75" height="29.92"/><path class="cls-5" d="M364.26,351.27l-1.4.85a.69.69,0,0,1-.9-.18l-1-1.32a.69.69,0,0,1,.69-1.08L364,350A.69.69,0,0,1,364.26,351.27Z"/><path class="cls-4" d="M362.5,352.59a1.08,1.08,0,0,1-.85-.42l-1-1.33a1.06,1.06,0,0,1,1.06-1.67l2.39.48a1.06,1.06,0,0,1,.35,1.94h0l-1.4.85A1.08,1.08,0,0,1,362.5,352.59Zm-1-2.69a.32.32,0,0,0-.25.14.31.31,0,0,0,0,.35l1,1.33a.3.3,0,0,0,.4.08l1.41-.85a.31.31,0,0,0,.14-.32.3.3,0,0,0-.24-.25l-2.4-.48Z"/><rect class="cls-4" x="360.5" y="353.33" width="3.08" height="0.75" transform="translate(-55.52 639.77) rotate(-78.75)"/><polygon class="cls-4" points="365.77 358.53 361.79 355.43 356.64 356.71 356.46 355.99 361.96 354.61 366.23 357.94 365.77 358.53"/><path class="cls-4" d="M361.94,358.88a4.81,4.81,0,0,1-2.91-1l.45-.6a4,4,0,0,0,3.59.71l.19.73A5.56,5.56,0,0,1,361.94,358.88Z"/><path class="cls-4" d="M364.16,388.85a33.8,33.8,0,0,1-6.57-.65L352,387.09A33.37,33.37,0,0,1,337.21,380l.48-.57a32.68,32.68,0,0,0,14.48,6.9l5.57,1.11a32.26,32.26,0,0,0,9.45.5l.07.74C366.23,388.8,365.19,388.85,364.16,388.85Z"/><path class="cls-2" d="M354,350.1a7.82,7.82,0,1,1-6.13-9.2A7.81,7.81,0,0,1,354,350.1Z"/><path class="cls-1" d="M351.37,349.58a5.15,5.15,0,1,1-4.05-6.07A5.14,5.14,0,0,1,351.37,349.58Z"/><path class="cls-2" d="M386.28,356.54a7.82,7.82,0,1,1-6.14-9.2A7.82,7.82,0,0,1,386.28,356.54Z"/><path class="cls-1" d="M383.67,356a5.15,5.15,0,1,1-4.05-6.07A5.16,5.16,0,0,1,383.67,356Z"/><path class="cls-2" d="M341.76,362.42a17.19,17.19,0,0,1-3.34-.33,16.8,16.8,0,1,1,3.34.33Zm0-33a16.1,16.1,0,1,0,3.15.31A16.12,16.12,0,0,0,341.72,329.46Z"/><path class="cls-2" d="M384,370.86a17.17,17.17,0,0,1-3.33-.33,16.86,16.86,0,1,1,19.83-13.23h0A16.88,16.88,0,0,1,384,370.86Zm0-33a16.11,16.11,0,1,0,8.95,29.5,16,16,0,0,0,6.85-10.24h0a16.12,16.12,0,0,0-12.64-18.95A16.27,16.27,0,0,0,384,337.89Z"/><path class="cls-2" d="M369,346.86c-3.14-3.27-7-4.05-10.67-2.15l-.35-.66c3.95-2.08,8.17-1.24,11.56,2.29Z"/><path class="cls-6" d="M161.65,432H331.34v-3.57H292.28a1.64,1.64,0,0,1-1.64-1.64v-14.6a1.63,1.63,0,0,1,1.64-1.64h39.06V407H161.65a3.89,3.89,0,0,0-3.89,3.89v17.26A3.89,3.89,0,0,0,161.65,432Z"/><path class="cls-7" d="M291.3,432h51v-3.57h-50a1.64,1.64,0,0,1-1.1-.43l-.06,0,0-.05a1.55,1.55,0,0,1-.44-1.08V412.19a1.6,1.6,0,0,1,.44-1.09.1.1,0,0,0,0-.05l.06,0a1.59,1.59,0,0,1,1.1-.43h50V407H291.34a4.14,4.14,0,0,0-4.21,4.07V428A4.09,4.09,0,0,0,291.3,432Z"/><path class="cls-8" d="M184.69,426.3H171.13V412.74h13.56Zm-12.56-1h11.56V413.74H172.13Z"/><path class="cls-8" d="M214.19,426.3H200.63V412.74h13.56Zm-12.56-1h11.56V413.74H201.63Z"/><path class="cls-8" d="M243.69,426.3H230.13V412.74h13.56Zm-12.56-1h11.56V413.74H231.13Z"/><path class="cls-8" d="M273.19,426.3H259.63V412.74h13.56Zm-12.56-1h11.56V413.74H260.63Z"/><rect class="cls-8" x="191.22" y="407" width="1" height="25.03"/><rect class="cls-8" x="193.61" y="407" width="1" height="25.03"/><rect class="cls-8" x="220.72" y="407" width="1" height="25.03"/><rect class="cls-8" x="223.11" y="407" width="1" height="25.03"/><rect class="cls-8" x="250.13" y="407" width="1" height="25.03"/><rect class="cls-8" x="252.52" y="407" width="1" height="25.03"/><path class="cls-2" d="M290.64,410.58H338.5a1.64,1.64,0,0,1,1.64,1.64v14.6a1.64,1.64,0,0,1-1.64,1.64H290.64a0,0,0,0,1,0,0V410.58A0,0,0,0,1,290.64,410.58Z" transform="translate(630.79 839.04) rotate(180)"/><rect class="cls-9" x="311.05" y="425.31" width="29.1" height="0.75"/><rect class="cls-9" x="290.64" y="420.75" width="29.1" height="0.75"/><rect class="cls-9" x="320.31" y="412.92" width="19.83" height="0.75"/><rect class="cls-9" x="306.75" y="418.87" width="19.09" height="0.75"/><rect class="cls-9" x="298.69" y="412.92" width="11.87" height="0.75"/><rect class="cls-9" x="339.77" y="410.58" width="0.75" height="17.88"/><path class="cls-6" d="M177.25,127.47H317.6v-2.63H273.41a1.21,1.21,0,0,1-1.21-1.21V94.78a1.21,1.21,0,0,1,1.21-1.21H317.6V90.93H177.25a2.87,2.87,0,0,0-2.86,2.87v30.81A2.86,2.86,0,0,0,177.25,127.47Z"/><path class="cls-7" d="M272.69,127.47h53v-2.63H273.41a1.2,1.2,0,0,1-.81-.32l0,0,0,0a1.16,1.16,0,0,1-.33-.8V94.75a1.16,1.16,0,0,1,.33-.8l0,0,0,0a1.24,1.24,0,0,1,.81-.31h52.24V90.93H272.72a3.06,3.06,0,0,0-3.1,3v30.58A3,3,0,0,0,272.69,127.47Z"/><path class="cls-2" d="M272.2,93.57h50.67a1.21,1.21,0,0,1,1.21,1.21v28.85a1.21,1.21,0,0,1-1.21,1.21H272.2a0,0,0,0,1,0,0V93.57A0,0,0,0,1,272.2,93.57Z" transform="translate(596.29 218.41) rotate(180)"/><rect class="cls-9" x="287.23" y="122.42" width="36.85" height="0.75"/><rect class="cls-9" x="272.2" y="117.27" width="18.66" height="0.75"/><rect class="cls-9" x="294.05" y="95.19" width="30.03" height="0.75"/><rect class="cls-9" x="284.07" y="113.91" width="14.05" height="0.75"/><rect class="cls-9" x="272.2" y="101.56" width="14.05" height="0.75"/><rect class="cls-9" x="278.13" y="95.19" width="8.74" height="0.75"/><polygon class="cls-10" points="297.63 118.61 290.6 116.01 283.17 118.61 283.17 105.29 297.63 105.29 297.63 118.61"/><rect class="cls-9" x="277.75" y="104.91" width="46.33" height="0.75"/><path class="cls-8" d="M192.39,91.93v34.54h-6.54V91.93h6.54m1-1h-8.54v36.54h8.54V90.93Z"/><path class="cls-8" d="M258.94,91.93v34.54h-6.53V91.93h6.53m1-1h-8.53v36.54h8.53V90.93Z"/><path class="cls-8" d="M209.17,119.7a.52.52,0,0,1-.35-.14L198.27,109a.5.5,0,0,1,0-.71l10.55-10.55a.51.51,0,0,1,.71,0l10.55,10.55a.5.5,0,0,1,.14.35.52.52,0,0,1-.14.36l-10.55,10.55A.54.54,0,0,1,209.17,119.7Zm-9.84-11,9.84,9.85,9.85-9.85-9.85-9.84Z"/><path class="cls-8" d="M209.17,113.67a.49.49,0,0,1-.35-.15L204.3,109a.51.51,0,0,1,0-.71l4.52-4.52a.51.51,0,0,1,.71,0L214,108.3a.5.5,0,0,1,0,.71l-4.51,4.51A.51.51,0,0,1,209.17,113.67Zm-3.81-5,3.81,3.81,3.81-3.81-3.81-3.81Z"/><path class="cls-8" d="M235.89,119.7a.52.52,0,0,1-.35-.14L225,109a.49.49,0,0,1-.15-.36.47.47,0,0,1,.15-.35l10.55-10.55a.51.51,0,0,1,.71,0L246.8,108.3a.51.51,0,0,1,0,.71l-10.55,10.55A.54.54,0,0,1,235.89,119.7Zm-9.84-11,9.84,9.85,9.84-9.85-9.84-9.84Z"/><path class="cls-8" d="M235.89,113.67a.49.49,0,0,1-.35-.15L231,109a.51.51,0,0,1,0-.71l4.52-4.52a.51.51,0,0,1,.71,0l4.51,4.52a.5.5,0,0,1,0,.71l-4.51,4.51A.51.51,0,0,1,235.89,113.67Zm-3.81-5,3.81,3.81,3.81-3.81-3.81-3.81Z"/><path class="cls-8" d="M222.49,116a.47.47,0,0,1-.35-.15L215.32,109a.51.51,0,0,1,0-.71l6.82-6.81a.5.5,0,0,1,.7,0l6.82,6.81a.5.5,0,0,1,.14.35.52.52,0,0,1-.14.36l-6.82,6.81A.47.47,0,0,1,222.49,116Zm-6.1-7.32,6.1,6.11,6.11-6.11-6.11-6.1Z"/><rect class="cls-9" x="323.71" y="93.57" width="0.75" height="31.28"/><path class="cls-2" d="M285.82,162.36H328a1.45,1.45,0,0,1,1.45,1.45v12.87a1.45,1.45,0,0,1-1.45,1.45H285.82a0,0,0,0,1,0,0V162.36A0,0,0,0,1,285.82,162.36Z" transform="translate(615.29 340.48) rotate(180)"/><path class="cls-11" d="M172.12,181.27H321.7v-3.15H287.27a1.44,1.44,0,0,1-1.45-1.44V163.81a1.45,1.45,0,0,1,1.45-1.45H321.7v-3.15H172.12a3.43,3.43,0,0,0-3.43,3.43v15.21A3.43,3.43,0,0,0,172.12,181.27Z"/><path class="cls-10" d="M286.41,181.27h44.93v-3.15H287.27a1.42,1.42,0,0,1-1-.38l-.05,0,0,0a1.35,1.35,0,0,1-.4-1V163.78a1.37,1.37,0,0,1,.4-1l0,0,.05,0a1.47,1.47,0,0,1,1-.38h44.07v-3.15H286.45a3.65,3.65,0,0,0-3.72,3.59v14.93A3.61,3.61,0,0,0,286.41,181.27Z"/><rect class="cls-9" x="303.82" y="175.3" width="25.65" height="0.75"/><rect class="cls-9" x="285.82" y="171.29" width="25.65" height="0.75"/><rect class="cls-9" x="311.98" y="164.38" width="17.48" height="0.75"/><rect class="cls-9" x="300.03" y="169.63" width="16.83" height="0.75"/><rect class="cls-9" x="292.92" y="164.38" width="10.47" height="0.75"/><rect class="cls-12" x="180.83" y="159.21" width="10.37" height="22.07"/><rect class="cls-12" x="195.52" y="159.21" width="2.68" height="22.07"/><rect class="cls-12" x="267.69" y="159.21" width="2.68" height="22.07"/><rect class="cls-12" x="231.6" y="159.21" width="2.68" height="22.07"/><rect class="cls-9" x="329.09" y="162.36" width="0.75" height="15.77"/><path class="cls-13" d="M329.65,319.89H200.08l-26.37,3.57h62.2a1.59,1.59,0,0,1,1.51,1.64v14.6a1.58,1.58,0,0,1-1.51,1.64h-62.2l26.37,3.58H329.61a4,4,0,0,0,3.87-4.07V323.91A3.93,3.93,0,0,0,329.65,319.89Z"/><path class="cls-3" d="M165.62,323.46h70.22a1.57,1.57,0,0,1,1.57,1.57v14.74a1.57,1.57,0,0,1-1.57,1.57H165.62a0,0,0,0,1,0,0V323.46A0,0,0,0,1,165.62,323.46Z"/><path class="cls-14" d="M236.81,319.89H163.68v3.57h72.23a1.46,1.46,0,0,1,1,.43l.05.05,0,.05a1.62,1.62,0,0,1,.41,1.08v14.66a1.67,1.67,0,0,1-.41,1.09l0,.05-.05,0a1.41,1.41,0,0,1-1,.43H163.68v3.58h73.09a4,4,0,0,0,3.87-4.07V323.91A3.93,3.93,0,0,0,236.81,319.89Z"/><rect class="cls-15" x="165.62" y="325.86" width="26.7" height="0.75"/><rect class="cls-15" x="184.35" y="330.42" width="53.07" height="0.75"/><rect class="cls-15" x="165.62" y="338.25" width="18.2" height="0.75"/><rect class="cls-15" x="178.74" y="332.3" width="17.52" height="0.75"/><rect class="cls-15" x="192.77" y="338.25" width="37.26" height="0.75"/><path class="cls-16" d="M328.28,341.84H246V323h82.28Zm-81.28-1h80.28V324H247Z"/><rect class="cls-16" x="254.81" y="319.85" width="1" height="25.1" transform="translate(-159.84 274.71) rotate(-44.56)"/><rect class="cls-16" x="265.36" y="319.85" width="1" height="25.1" transform="translate(-156.8 282.12) rotate(-44.56)"/><rect class="cls-16" x="275.92" y="319.85" width="1" height="25.1" transform="translate(-153.77 289.52) rotate(-44.56)"/><rect class="cls-16" x="286.47" y="319.85" width="1" height="25.1" transform="translate(-150.73 296.93) rotate(-44.56)"/><rect class="cls-16" x="297.03" y="319.85" width="1" height="25.1" transform="translate(-147.7 304.33) rotate(-44.56)"/><rect class="cls-16" x="307.58" y="319.85" width="1" height="25.1" transform="translate(-144.66 311.74) rotate(-44.56)"/><rect class="cls-16" x="318.13" y="319.85" width="1" height="25.1" transform="translate(-141.63 319.16) rotate(-44.56)"/><rect class="cls-16" x="306.08" y="331.9" width="25.1" height="1" transform="translate(-141.78 326.48) rotate(-45.47)"/><rect class="cls-16" x="295.53" y="331.9" width="25.1" height="1" transform="translate(-144.94 318.95) rotate(-45.47)"/><rect class="cls-16" x="284.97" y="331.9" width="25.1" height="1" transform="translate(-148.09 311.43) rotate(-45.47)"/><rect class="cls-16" x="274.42" y="331.9" width="25.1" height="1" transform="translate(-151.24 303.9) rotate(-45.47)"/><rect class="cls-16" x="263.86" y="331.9" width="25.1" height="1" transform="translate(-154.4 296.38) rotate(-45.47)"/><rect class="cls-16" x="253.31" y="331.9" width="25.1" height="1" transform="translate(-157.55 288.85) rotate(-45.47)"/><rect class="cls-16" x="242.76" y="331.9" width="25.1" height="1" transform="translate(-160.7 281.33) rotate(-45.47)"/><rect class="cls-16" x="244.67" y="327.03" width="11.45" height="1" transform="translate(-158.69 276.37) rotate(-45.47)"/><rect class="cls-16" x="250" y="331.86" width="1" height="11.07" transform="translate(-164.72 272.77) rotate(-44.56)"/><rect class="cls-16" x="323.46" y="321.8" width="1" height="11.45" transform="translate(-136.68 321.47) rotate(-44.56)"/><rect class="cls-16" x="318.31" y="336.9" width="11.08" height="1" transform="translate(-143.79 331.66) rotate(-45.47)"/><path class="cls-3" d="M269.38,376.17H157.23v27.52H269.38c6.17,0,11.18-6.16,11.18-13.76S275.55,376.17,269.38,376.17Z"/><path class="cls-14" d="M269.48,372.87H154.32v3.3H269.38c6.17,0,11.18,6.16,11.18,13.76s-5,13.76-11.18,13.76H154.32V407H269.48c7.66,0,13.86-7.64,13.86-17.07h0C283.34,380.51,277.14,372.87,269.48,372.87Z"/><path class="cls-13" d="M283.34,389.93c0,9.43-6.2,17.07-13.86,17.07H340.7c7.66,0,13.86-7.64,13.86-17.07h0c0-9.42-6.2-17.06-13.86-17.06H269.49C277.14,372.87,283.34,380.51,283.34,389.93Z"/><rect class="cls-15" x="157.17" y="398.55" width="111.29" height="0.75"/><rect class="cls-15" x="157.17" y="383.45" width="45.62" height="0.75"/><rect class="cls-15" x="261.29" y="383.45" width="12.06" height="0.75"/><rect class="cls-15" x="259.2" y="391.66" width="16.98" height="0.75"/><rect class="cls-15" x="173.23" y="387.59" width="16.98" height="0.75"/><path class="cls-16" d="M341.62,397.06H294.45V382.81h47.17Zm-46.17-1h45.17V383.81H295.45Z"/><polygon class="cls-12" points="257.05 423.14 245.34 418.35 233.62 423.14 233.62 383.31 257.05 383.31 257.05 423.14"/><path class="cls-3" d="M224.56,130.55h-62v25.58h62c5.74,0,10.39-5.72,10.39-12.79S230.3,130.55,224.56,130.55Z"/><path class="cls-14" d="M224.65,127.47H159.89v3.08h64.67c5.74,0,10.39,5.72,10.39,12.79s-4.65,12.79-10.39,12.79H159.89v3.08h64.76c7.12,0,12.89-7.11,12.89-15.87h0C237.54,134.58,231.77,127.47,224.65,127.47Z"/><path class="cls-13" d="M237.54,143.34c0,8.76-5.77,15.87-12.89,15.87H333.18c7.12,0,12.89-7.11,12.89-15.87h0c0-8.76-5.77-15.87-12.89-15.87H224.65C231.77,127.47,237.54,134.58,237.54,143.34Z"/><rect class="cls-15" x="162.54" y="151.32" width="61.16" height="0.75"/><rect class="cls-15" x="162.54" y="137.28" width="42.41" height="0.75"/><rect class="cls-15" x="217.04" y="137.28" width="11.22" height="0.75"/><rect class="cls-15" x="215.1" y="144.92" width="15.79" height="0.75"/><rect class="cls-15" x="177.48" y="141.13" width="15.79" height="0.75"/><path class="cls-2" d="M322.65,127.47h-5.79c7.12,0,12.89,7.11,12.89,15.87s-5.77,15.87-12.89,15.87h5.79c7.12,0,12.89-7.11,12.89-15.87S329.77,127.47,322.65,127.47Z"/><path class="cls-2" d="M243.33,127.47h-5.79c7.11,0,12.88,7.11,12.88,15.87s-5.77,15.87-12.88,15.87h5.79c7.12,0,12.89-7.11,12.89-15.87S250.45,127.47,243.33,127.47Z"/><path class="cls-16" d="M234.53,159.68l-.06-1c7.52-.48,13.42-7.21,13.42-15.34,0-8.47-6.4-15.37-14.27-15.37v-1l.89,0c8,.49,14.38,7.63,14.38,16.34S242.58,159.17,234.53,159.68Z"/><path class="cls-16" d="M313.71,159.68l-.06-1c7.52-.48,13.42-7.21,13.42-15.34,0-8.47-6.41-15.37-14.27-15.37v-1l.88,0c8,.49,14.39,7.63,14.39,16.34S321.76,159.17,313.71,159.68Z"/><path class="cls-16" d="M310.62,149.26H272.73a6.53,6.53,0,1,1,0-13h37.89a6.53,6.53,0,0,1,0,13Zm-37.89-12a5.53,5.53,0,1,0,0,11h37.89a5.53,5.53,0,0,0,0-11Z"/><path class="cls-2" d="M249.38,276.19H324V248.67H249.38c-6.13,0-11.11,6.16-11.11,13.76S243.25,276.19,249.38,276.19Z"/><path class="cls-12" d="M248.87,279.5h78v-3.31H249.53c-6.17,0-11.26-6.16-11.26-13.76s5.17-13.76,11.34-13.76h77.27v-3.31h-78c-7.66,0-13.86,7.64-13.86,17.07h0C235,271.85,241.21,279.5,248.87,279.5Z"/><path class="cls-17" d="M235,262.43c0-9.43,6.2-17.07,13.86-17.07H177.65c-7.66,0-13.86,7.64-13.86,17.07h0c0,9.42,6.2,17.07,13.86,17.07h71.22C241.21,279.49,235,271.85,235,262.43Z"/><path class="cls-12" d="M181.36,262.43c0-9.43,6.21-17.07,13.86-17.07h-8.46c-7.66,0-13.86,7.64-13.86,17.07s6.2,17.07,13.86,17.07h8.46C187.57,279.5,181.36,271.85,181.36,262.43Z"/><path class="cls-12" d="M225.71,262.43c0-9.43,6.2-17.07,13.86-17.07H231.1c-7.65,0-13.85,7.64-13.85,17.07s6.2,17.07,13.85,17.07h8.47C231.91,279.5,225.71,271.85,225.71,262.43Z"/><rect class="cls-9" x="249.89" y="253.06" width="74.13" height="0.75"/><rect class="cls-9" x="278.41" y="268.17" width="45.62" height="0.75"/><rect class="cls-9" x="245" y="268.17" width="12.06" height="0.75"/><rect class="cls-9" x="242.17" y="259.95" width="16.98" height="0.75"/><rect class="cls-9" x="290.98" y="264.02" width="16.98" height="0.75"/><rect class="cls-9" x="323.6" y="248.67" width="0.75" height="27.52"/><rect class="cls-12" x="145.17" y="358.84" width="206.23" height="14.02"/><rect class="cls-2" x="162.4" y="358.84" width="10.47" height="14.02"/><rect class="cls-2" x="177" y="358.84" width="5.23" height="14.02"/><rect class="cls-2" x="323.7" y="358.84" width="10.47" height="14.02" transform="translate(657.87 731.71) rotate(180)"/><rect class="cls-2" x="314.34" y="358.84" width="5.23" height="14.02" transform="translate(633.91 731.71) rotate(180)"/><rect class="cls-7" x="153.75" y="309.25" width="185.1" height="10.63"/><rect class="cls-12" x="169.61" y="309.25" width="2.85" height="10.63"/><rect class="cls-12" x="175.09" y="309.25" width="2.85" height="10.63"/><rect class="cls-12" x="206.2" y="309.25" width="2.85" height="10.63"/><rect class="cls-12" x="211.68" y="309.25" width="2.85" height="10.63"/><rect class="cls-12" x="242.79" y="309.25" width="2.85" height="10.63"/><rect class="cls-12" x="248.28" y="309.25" width="2.85" height="10.63"/><rect class="cls-12" x="279.38" y="309.25" width="2.85" height="10.63"/><rect class="cls-12" x="284.87" y="309.25" width="2.85" height="10.63"/><rect class="cls-12" x="315.97" y="309.25" width="2.85" height="10.63"/><rect class="cls-12" x="321.46" y="309.25" width="2.85" height="10.63"/><rect class="cls-7" x="172.59" y="220.8" width="154.85" height="10.63"/><rect class="cls-12" x="163.87" y="197.24" width="172.29" height="23.56" rx="3.6"/><rect class="cls-10" x="154.88" y="344.92" width="191.5" height="13.93" rx="3.32"/><path class="cls-3" d="M154.88,347.43h33.88a1.13,1.13,0,0,1,1.13,1.13v6.63a1.13,1.13,0,0,1-1.13,1.13H154.88a0,0,0,0,1,0,0v-8.9A0,0,0,0,1,154.88,347.43Z"/><path class="cls-11" d="M189.45,344.92H154.88v2.51h33.88a1.14,1.14,0,0,1,1.14,1.13v6.64a1.14,1.14,0,0,1-1.14,1.13H154.88v2.51h34.54a2.86,2.86,0,0,0,2.86-2.86v-8.23A2.83,2.83,0,0,0,189.45,344.92Z"/><rect class="cls-15" x="154.88" y="349.2" width="19.25" height="0.75"/><rect class="cls-15" x="170.65" y="353.26" width="19.25" height="0.75"/><rect class="cls-15" x="156.04" y="351.34" width="10.15" height="0.75"/><path class="cls-11" d="M200.73,357.17c-1.79,0-3.18-2.18-3.18-5s1.39-4.95,3.18-4.95,3.19,2.17,3.19,4.95S202.52,357.17,200.73,357.17Zm0-8.91c-1.18,0-2.18,1.81-2.18,3.95s1,4,2.18,4,2.19-1.81,2.19-4S201.91,348.26,200.73,348.26Z"/><path class="cls-11" d="M336.16,357.17c-1.78,0-3.18-2.18-3.18-5s1.4-4.95,3.18-4.95,3.19,2.17,3.19,4.95S338,357.17,336.16,357.17Zm0-8.91c-1.18,0-2.18,1.81-2.18,3.95s1,4,2.18,4,2.19-1.81,2.19-4S337.35,348.26,336.16,348.26Z"/><rect class="cls-11" x="209.58" y="344.92" width="4.1" height="13.93"/><rect class="cls-11" x="216.18" y="344.92" width="1.75" height="13.93"/><rect class="cls-11" x="242.96" y="344.92" width="1.75" height="13.93"/><rect class="cls-11" x="269.74" y="344.92" width="1.75" height="13.93"/><rect class="cls-11" x="296.52" y="344.92" width="1.75" height="13.93"/><rect class="cls-11" x="323.29" y="344.92" width="1.75" height="13.93"/><rect class="cls-13" x="147.15" y="231.43" width="195.13" height="13.93" rx="3.55"/><path class="cls-3" d="M147.15,233.95h83a1.21,1.21,0,0,1,1.21,1.21v6.48a1.21,1.21,0,0,1-1.21,1.21h-83a0,0,0,0,1,0,0v-8.9A0,0,0,0,1,147.15,233.95Z"/><path class="cls-14" d="M230.85,231.43h-83.7V234h82.92a1.23,1.23,0,0,1,1.3,1.13v6.63a1.23,1.23,0,0,1-1.3,1.14H147.15v2.51h83.67a3.09,3.09,0,0,0,3.27-2.86v-8.24A3.06,3.06,0,0,0,230.85,231.43Z"/><rect class="cls-15" x="147.15" y="235.72" width="26.6" height="0.75"/><rect class="cls-15" x="209.36" y="239.77" width="22.01" height="0.75"/><rect class="cls-15" x="147.15" y="237.86" width="55.79" height="0.75"/><rect class="cls-16" x="245.72" y="231.43" width="1" height="13.92"/><rect class="cls-16" x="249.52" y="231.43" width="1" height="13.92"/><rect class="cls-16" x="325.04" y="231.43" width="1" height="13.92"/><rect class="cls-16" x="328.84" y="231.43" width="1" height="13.92"/><rect class="cls-10" x="157.24" y="279.5" width="186.79" height="29.76" rx="3.8"/><path class="cls-11" d="M306.79,304.62H194.47v-.5a4.6,4.6,0,0,0-4.6-4.6h-.5V289.23h.5a4.61,4.61,0,0,0,4.6-4.6v-.5H306.79v.5a4.61,4.61,0,0,0,4.6,4.6h.5v10.29h-.5a4.6,4.6,0,0,0-4.6,4.6Zm-111.34-1H305.81a5.62,5.62,0,0,1,5.08-5.08v-8.33a5.62,5.62,0,0,1-5.08-5.08H195.45a5.62,5.62,0,0,1-5.08,5.08v8.33A5.62,5.62,0,0,1,195.45,303.62Z"/><path class="cls-11" d="M170.74,304.84c-3.88,0-7-4.7-7-10.47s3.16-10.46,7-10.46,7,4.7,7,10.46S174.63,304.84,170.74,304.84Zm0-19.93c-3.33,0-6,4.25-6,9.46s2.71,9.47,6,9.47,6-4.25,6-9.47S174.07,284.91,170.74,284.91Z"/><path class="cls-11" d="M330.44,304.84c-3.88,0-7-4.7-7-10.47s3.16-10.46,7-10.46,7,4.7,7,10.46S334.32,304.84,330.44,304.84Zm0-19.93c-3.33,0-6,4.25-6,9.46s2.71,9.47,6,9.47,6-4.25,6-9.47S333.77,284.91,330.44,284.91Z"/><circle class="cls-11" cx="183.58" cy="294.37" r="2.59"/><path class="cls-11" d="M320.32,294.37a2.59,2.59,0,1,1-2.59-2.58A2.59,2.59,0,0,1,320.32,294.37Z"/><rect class="cls-7" x="184.56" y="181.34" width="132.57" height="15.9"/><path class="cls-8" d="M199.2,195.43h-3.67V183.15h3.67Zm-2.67-1h1.67V184.15h-1.67Z"/><path class="cls-8" d="M205.82,195.43h-3.66V183.15h3.66Zm-2.66-1h1.66V184.15h-1.66Z"/><path class="cls-8" d="M249.37,195.43H245.7V183.15h3.67Zm-2.67-1h1.67V184.15H246.7Z"/><path class="cls-8" d="M256,195.43h-3.66V183.15H256Zm-2.66-1H255V184.15h-1.66Z"/><path class="cls-8" d="M299.54,195.43h-3.67V183.15h3.67Zm-2.67-1h1.67V184.15h-1.67Z"/><path class="cls-8" d="M306.16,195.43H302.5V183.15h3.66Zm-2.66-1h1.66V184.15H303.5Z"/><path class="cls-18" d="M207,217.65H176.5V200.79H207Zm-29.49-1H206V201.79H177.5Z"/><path class="cls-18" d="M324.23,217.65h-10V200.79h10Zm-9-1h8V201.79h-8Z"/><path class="cls-18" d="M281.85,217.65h-5V200.79h5Zm-4-1h3V201.79h-3Z"/><path class="cls-18" d="M242.51,217.65h-5V200.79h5Zm-4-1h3V201.79h-3Z"/><path class="cls-18" d="M217.63,214a4.77,4.77,0,1,1,4.77-4.77A4.78,4.78,0,0,1,217.63,214Zm0-8.54a3.77,3.77,0,1,0,3.77,3.77A3.77,3.77,0,0,0,217.63,205.45Z"/><path class="cls-18" d="M223.1,214a4.77,4.77,0,1,1,4.77-4.77A4.78,4.78,0,0,1,223.1,214Zm0-8.54a3.77,3.77,0,1,0,3.77,3.77A3.78,3.78,0,0,0,223.1,205.45Z"/><path class="cls-18" d="M296.3,214a4.77,4.77,0,1,1,4.77-4.77A4.78,4.78,0,0,1,296.3,214Zm0-8.54a3.77,3.77,0,1,0,3.77,3.77A3.77,3.77,0,0,0,296.3,205.45Z"/><path class="cls-18" d="M301.77,214a4.77,4.77,0,1,1,4.77-4.77A4.78,4.78,0,0,1,301.77,214Zm0-8.54a3.77,3.77,0,1,0,3.77,3.77A3.77,3.77,0,0,0,301.77,205.45Z"/><path class="cls-18" d="M257,214a4.77,4.77,0,1,1,4.78-4.77A4.78,4.78,0,0,1,257,214Zm0-8.54a3.77,3.77,0,1,0,3.78,3.77A3.78,3.78,0,0,0,257,205.45Z"/><path class="cls-18" d="M262.43,214a4.77,4.77,0,1,1,4.77-4.77A4.78,4.78,0,0,1,262.43,214Zm0-8.54a3.77,3.77,0,1,0,3.77,3.77A3.77,3.77,0,0,0,262.43,205.45Z"/><rect class="cls-1" x="161.65" y="406.63" width="71.97" height="0.75"/><rect class="cls-1" x="257.05" y="406.63" width="85.22" height="0.75"/><rect class="cls-1" x="154.32" y="372.49" width="186.39" height="0.75"/><rect class="cls-1" x="154.88" y="358.47" width="188.18" height="0.75"/><rect class="cls-1" x="163.68" y="344.54" width="165.93" height="0.75"/><rect class="cls-1" x="163.68" y="319.51" width="165.97" height="0.75"/><rect class="cls-1" x="161.04" y="308.88" width="177.81" height="0.75"/><rect class="cls-1" x="176.52" y="279.06" width="150.36" height="0.75"/><rect class="cls-1" x="176.52" y="244.98" width="150.36" height="0.75"/><rect class="cls-1" x="172.59" y="231.06" width="154.85" height="0.75"/><rect class="cls-1" x="172.59" y="220.42" width="154.85" height="0.75"/><rect class="cls-1" x="184.56" y="196.87" width="132.57" height="0.75"/><rect class="cls-1" x="184.56" y="180.96" width="132.57" height="0.75"/><rect class="cls-1" x="172.12" y="158.83" width="159.22" height="0.75"/><rect class="cls-1" x="177.25" y="127.1" width="148.4" height="0.75"/><rect class="cls-1" x="106.31" y="431.95" width="287.39" height="2"/></g></svg>